name rise31.4854peak64.571fall78.6902.mot
datacolumns 19
datarows 30
range 22.74493700000000 22.79324500000000
endheader
time	ground_force1_vx	ground_force1_vy	ground_force1_vz	ground_force1_px	ground_force1_py	ground_force1_pz	ground_force2_vx	ground_force2_vy	ground_force2_vz	ground_force2_px	ground_force2_py	ground_force2_pz	ground_torque1_x	ground_torque1_y	ground_torque1_z	ground_torque2_x	ground_torque2_y	ground_torque2_z	
22.74493700000000	1.42189700000000	690.87234500000000	45.98567900000000	0.19718400000000	0.00000000000000	0.11151500000000	0.00000000000000	0.00000000000000	0.00000000000000	0.00000000000000	0.00000000000000	0.00000000000000	0.00000000000000	17.10529500000000	0.00000000000000	0.00000000000000	0.00000000000000	0.00000000000000	
22.74658000000000	0.80872900000000	691.85533399999997	45.93894700000000	0.19630900000000	0.00000000000000	0.11144700000000	0.00000000000000	0.00000000000000	0.00000000000000	0.00000000000000	0.00000000000000	0.00000000000000	0.00000000000000	17.17221000000000	0.00000000000000	0.00000000000000	0.00000000000000	0.00000000000000	
22.74824500000000	0.18613200000000	692.89142000000004	45.89538400000000	0.19542000000000	0.00000000000000	0.11137900000000	0.00000000000000	0.00000000000000	0.00000000000000	0.00000000000000	0.00000000000000	0.00000000000000	0.00000000000000	17.24332500000000	0.00000000000000	0.00000000000000	0.00000000000000	0.00000000000000	
22.74993900000000	-0.44584100000000	693.98025500000006	45.85496000000000	0.19451600000000	0.00000000000000	0.11131100000000	0.00000000000000	0.00000000000000	0.00000000000000	0.00000000000000	0.00000000000000	0.00000000000000	0.00000000000000	17.31853500000000	0.00000000000000	0.00000000000000	0.00000000000000	0.00000000000000	
22.75157900000000	-1.08709500000000	695.12147800000002	45.81765300000000	0.19359600000000	0.00000000000000	0.11124200000000	0.00000000000000	0.00000000000000	0.00000000000000	0.00000000000000	0.00000000000000	0.00000000000000	0.00000000000000	17.39773400000000	0.00000000000000	0.00000000000000	0.00000000000000	0.00000000000000	
22.75324500000000	-1.73749800000000	696.31470700000000	45.78344500000000	0.19266000000000	0.00000000000000	0.11117400000000	0.00000000000000	0.00000000000000	0.00000000000000	0.00000000000000	0.00000000000000	0.00000000000000	0.00000000000000	17.48081000000000	0.00000000000000	0.00000000000000	0.00000000000000	0.00000000000000	
22.75493600000000	-2.39687500000000	697.55953799999997	45.75232100000000	0.19170700000000	0.00000000000000	0.11110700000000	0.00000000000000	0.00000000000000	0.00000000000000	0.00000000000000	0.00000000000000	0.00000000000000	0.00000000000000	17.56764700000000	0.00000000000000	0.00000000000000	0.00000000000000	0.00000000000000	
22.75658600000000	-3.06501600000000	698.85554300000001	45.72427600000000	0.19073800000000	0.00000000000000	0.11103900000000	0.00000000000000	0.00000000000000	0.00000000000000	0.00000000000000	0.00000000000000	0.00000000000000	0.00000000000000	17.65812600000000	0.00000000000000	0.00000000000000	0.00000000000000	0.00000000000000	
22.75824600000000	-3.74166800000000	700.20226800000000	45.69930900000000	0.18975100000000	0.00000000000000	0.11097200000000	0.00000000000000	0.00000000000000	0.00000000000000	0.00000000000000	0.00000000000000	0.00000000000000	0.00000000000000	17.75212700000000	0.00000000000000	0.00000000000000	0.00000000000000	0.00000000000000	
22.75992600000000	-4.42654400000000	701.59922700000004	45.67742500000000	0.18874800000000	0.00000000000000	0.11090500000000	0.00000000000000	0.00000000000000	0.00000000000000	0.00000000000000	0.00000000000000	0.00000000000000	0.00000000000000	17.84952200000000	0.00000000000000	0.00000000000000	0.00000000000000	0.00000000000000	
22.76158000000000	-5.11931500000000	703.04590499999995	45.65863700000000	0.18772800000000	0.00000000000000	0.11083900000000	0.00000000000000	0.00000000000000	0.00000000000000	0.00000000000000	0.00000000000000	0.00000000000000	0.00000000000000	17.95018300000000	0.00000000000000	0.00000000000000	0.00000000000000	0.00000000000000	
22.76324500000000	-5.81961700000000	704.54174899999998	45.64296500000000	0.18669300000000	0.00000000000000	0.11077300000000	0.00000000000000	0.00000000000000	0.00000000000000	0.00000000000000	0.00000000000000	0.00000000000000	0.00000000000000	18.05397700000000	0.00000000000000	0.00000000000000	0.00000000000000	0.00000000000000	
22.76492000000000	-6.52705200000000	706.08617000000004	45.63043700000000	0.18564100000000	0.00000000000000	0.11070800000000	0.00000000000000	0.00000000000000	0.00000000000000	0.00000000000000	0.00000000000000	0.00000000000000	0.00000000000000	18.16077000000000	0.00000000000000	0.00000000000000	0.00000000000000	0.00000000000000	
22.76658100000000	-7.24118600000000	707.67853700000001	45.62108900000000	0.18457500000000	0.00000000000000	0.11064300000000	0.00000000000000	0.00000000000000	0.00000000000000	0.00000000000000	0.00000000000000	0.00000000000000	0.00000000000000	18.27042300000000	0.00000000000000	0.00000000000000	0.00000000000000	0.00000000000000	
22.76824400000000	-7.96155200000000	709.31817699999999	45.61496500000000	0.18349500000000	0.00000000000000	0.11057900000000	0.00000000000000	0.00000000000000	0.00000000000000	0.00000000000000	0.00000000000000	0.00000000000000	0.00000000000000	18.38279500000000	0.00000000000000	0.00000000000000	0.00000000000000	0.00000000000000	
22.76992500000000	-8.68765300000000	711.00436999999999	45.61211700000000	0.18240300000000	0.00000000000000	0.11051500000000	0.00000000000000	0.00000000000000	0.00000000000000	0.00000000000000	0.00000000000000	0.00000000000000	0.00000000000000	18.49774100000000	0.00000000000000	0.00000000000000	0.00000000000000	0.00000000000000	
22.77158000000000	-9.41896200000000	712.73635000000002	45.61260600000000	0.18129800000000	0.00000000000000	0.11045200000000	0.00000000000000	0.00000000000000	0.00000000000000	0.00000000000000	0.00000000000000	0.00000000000000	0.00000000000000	18.61511400000000	0.00000000000000	0.00000000000000	0.00000000000000	0.00000000000000	
22.77325100000000	-10.15492500000000	714.51329699999997	45.61650200000000	0.18018300000000	0.00000000000000	0.11038900000000	0.00000000000000	0.00000000000000	0.00000000000000	0.00000000000000	0.00000000000000	0.00000000000000	0.00000000000000	18.73476400000000	0.00000000000000	0.00000000000000	0.00000000000000	0.00000000000000	
22.77492000000000	-10.89496300000000	716.33434000000000	45.62388400000000	0.17905900000000	0.00000000000000	0.11032700000000	0.00000000000000	0.00000000000000	0.00000000000000	0.00000000000000	0.00000000000000	0.00000000000000	0.00000000000000	18.85653800000000	0.00000000000000	0.00000000000000	0.00000000000000	0.00000000000000	
22.77658200000000	-11.63847500000000	718.19855199999995	45.63484000000000	0.17792700000000	0.00000000000000	0.11026600000000	0.00000000000000	0.00000000000000	0.00000000000000	0.00000000000000	0.00000000000000	0.00000000000000	0.00000000000000	18.98028100000000	0.00000000000000	0.00000000000000	0.00000000000000	0.00000000000000	
22.77824900000000	-12.38483700000000	720.10494900000003	45.64946500000000	0.17679000000000	0.00000000000000	0.11020400000000	0.00000000000000	0.00000000000000	0.00000000000000	0.00000000000000	0.00000000000000	0.00000000000000	0.00000000000000	19.10583400000000	0.00000000000000	0.00000000000000	0.00000000000000	0.00000000000000	
22.77993900000000	-13.13340700000000	722.05248500000005	45.66786700000000	0.17564700000000	0.00000000000000	0.11014400000000	0.00000000000000	0.00000000000000	0.00000000000000	0.00000000000000	0.00000000000000	0.00000000000000	0.00000000000000	19.23303600000000	0.00000000000000	0.00000000000000	0.00000000000000	0.00000000000000	
22.78158000000000	-13.88353000000000	724.04005700000005	45.69015900000000	0.17450200000000	0.00000000000000	0.11008300000000	0.00000000000000	0.00000000000000	0.00000000000000	0.00000000000000	0.00000000000000	0.00000000000000	0.00000000000000	19.36172300000000	0.00000000000000	0.00000000000000	0.00000000000000	0.00000000000000	
22.78324800000000	-14.63453600000000	726.06649500000003	45.71646400000000	0.17335500000000	0.00000000000000	0.11002300000000	0.00000000000000	0.00000000000000	0.00000000000000	0.00000000000000	0.00000000000000	0.00000000000000	0.00000000000000	19.49172800000000	0.00000000000000	0.00000000000000	0.00000000000000	0.00000000000000	
22.78493900000000	-15.38574200000000	728.13056500000005	45.74691500000000	0.17220900000000	0.00000000000000	0.10996300000000	0.00000000000000	0.00000000000000	0.00000000000000	0.00000000000000	0.00000000000000	0.00000000000000	0.00000000000000	19.62288300000000	0.00000000000000	0.00000000000000	0.00000000000000	0.00000000000000	
22.78658200000000	-16.13646200000000	730.23096899999996	45.78164900000000	0.17106500000000	0.00000000000000	0.10990400000000	0.00000000000000	0.00000000000000	0.00000000000000	0.00000000000000	0.00000000000000	0.00000000000000	0.00000000000000	19.75501700000000	0.00000000000000	0.00000000000000	0.00000000000000	0.00000000000000	
22.78824700000000	-16.88599900000000	732.36634100000003	45.82081500000000	0.16992500000000	0.00000000000000	0.10984400000000	0.00000000000000	0.00000000000000	0.00000000000000	0.00000000000000	0.00000000000000	0.00000000000000	0.00000000000000	19.88795500000000	0.00000000000000	0.00000000000000	0.00000000000000	0.00000000000000	
22.78992200000000	-17.63365900000000	734.53524500000003	45.86456700000000	0.16879000000000	0.00000000000000	0.10978500000000	0.00000000000000	0.00000000000000	0.00000000000000	0.00000000000000	0.00000000000000	0.00000000000000	0.00000000000000	20.02152300000000	0.00000000000000	0.00000000000000	0.00000000000000	0.00000000000000	
22.79158400000000	-18.37874400000000	736.73617899999999	45.91306500000000	0.16766200000000	0.00000000000000	0.10972600000000	0.00000000000000	0.00000000000000	0.00000000000000	0.00000000000000	0.00000000000000	0.00000000000000	0.00000000000000	20.15554300000000	0.00000000000000	0.00000000000000	0.00000000000000	0.00000000000000	
22.79324500000000	-19.12055900000000	738.96756800000003	45.96647500000000	0.16654200000000	0.00000000000000	0.10966600000000	0.00000000000000	0.00000000000000	0.00000000000000	0.00000000000000	0.00000000000000	0.00000000000000	0.00000000000000	20.28983600000000	0.00000000000000	0.00000000000000	0.00000000000000	0.00000000000000	
